<svg xmlns="http://www.w3.org/2000/svg" viewBox="0 0 1159.47 607.47"><defs><style>.cls-1{fill:#81446c;}.cls-1,.cls-3{stroke:#fff;stroke-miterlimit:10;stroke-width:3px;}.cls-2{font-size:63.32px;fill:#fff;font-family:Consolas, Consolas;}.cls-3{fill:none;}</style></defs><title>Devices Vectors</title><g id="Desk"><circle class="cls-1" cx="525.97" cy="471.38" r="16.02"/><path class="cls-1" d="M574,673.85H688.63s-28.49-45.34,0-86.05H574S605.31,623.29,574,673.85Z" transform="translate(-106.4 -90.31)"/><path class="cls-1" d="M716,696.28H544.78a.71.71,0,0,1-.71-.71v-4.1a17.62,17.62,0,0,1,17.62-17.62H702a14.78,14.78,0,0,1,14.78,14.77v7A.71.71,0,0,1,716,696.28Z" transform="translate(-106.4 -90.31)"/><rect class="cls-1" x="180.95" y="50.87" width="687.9" height="446.62" rx="12" ry="12"/><rect class="cls-1" x="209.44" y="76.51" width="632.36" height="370.3" rx="6.5" ry="6.5"/><circle class="cls-1" cx="839.9" cy="74.14" r="72.64"/><text class="cls-2" transform="translate(786.25 93.3)">&lt;/&gt;</text></g><g id="PC"><path class="cls-1" d="M670.89,580h485.66a0,0,0,0,1,0,0v7.83A16.21,16.21,0,0,1,1140.34,604H687.76a16.88,16.88,0,0,1-16.88-16.88V580A0,0,0,0,1,670.89,580Z"/><path class="cls-1" d="M876.33,580h75.48a0,0,0,0,1,0,0v4.86a7.16,7.16,0,0,1-7.16,7.16H883.49a7.16,7.16,0,0,1-7.16-7.16V580A0,0,0,0,1,876.33,580Z"/><rect class="cls-1" x="697.95" y="297.98" width="431.54" height="282" rx="9" ry="9"/><rect class="cls-1" x="709.04" y="310.08" width="409.05" height="247.82" rx="3.5" ry="3.5"/><circle class="cls-1" cx="1115.96" cy="310.8" r="42.01"/><circle class="cls-3" cx="1108.79" cy="291.55" r="6.43"/><path class="cls-3" d="M1228.05,385.63l-13.65,21.51a4.11,4.11,0,0,0,3.63,6.26h28.19a4.11,4.11,0,0,0,3.67-6.2l-13.15-21.5A5.12,5.12,0,0,0,1228.05,385.63Z" transform="translate(-106.4 -90.31)"/><path class="cls-1" d="M1203.37,395l-8.93,14.07a2.69,2.69,0,0,0,2.37,4.09h18.43a2.68,2.68,0,0,0,2.4-4.05l-8.6-14.06A3.34,3.34,0,0,0,1203.37,395Z" transform="translate(-106.4 -90.31)"/></g><g id="Tablet"><rect class="cls-1" x="1.5" y="307.95" width="239.27" height="295.05" rx="10" ry="10"/><rect class="cls-1" x="15.74" y="321.83" width="211.5" height="267.4" rx="7.12" ry="7.12"/><path class="cls-1" d="M87,321.83h68.72a0,0,0,0,1,0,0v8.61a5,5,0,0,1-5,5H92a5,5,0,0,1-5-5v-8.61A0,0,0,0,1,87,321.83Z"/></g><g id="Mobile"><rect class="cls-1" x="180.95" y="426.4" width="94" height="176.01" rx="5.54" ry="5.54"/><rect class="cls-1" x="189.14" y="434.47" width="77.62" height="148.36" rx="2.21" ry="2.21"/><rect class="cls-1" x="213" y="588.16" width="28.84" height="6.77" rx="2.37" ry="2.37"/></g><g id="Arrow"><polygon class="cls-1" points="238.4 138.1 235.28 96.17 198.39 122.79 238.4 138.1"/><path class="cls-3" d="M110.75,225.21c15.66-30.62,47-63.37,89.72-62.66s75.49,34.89,61.6,84.74c-18.87,47-63,26.58-70.14-6.41-10-67.65,79.75-96.13,130.41-40.45" transform="translate(-106.4 -90.31)"/></g></svg>